<svg width="30" height="30" viewBox="0 0 36 36" fill="none" xmlns="http://www.w3.org/2000/svg">
<path fill-rule="evenodd" clip-rule="evenodd" d="M23.25 17H22.065L21.645 16.595C23.115 14.885 24 12.665 24 10.25C24 4.865 19.635 0.5 14.25 0.5C8.865 0.5 4.5 4.865 4.5 10.25C4.5 15.635 8.865 20 14.25 20C16.665 20 18.885 19.115 20.595 17.645L21 18.065V19.25L28.5 26.735L30.735 24.5L23.25 17ZM14.25 17C10.515 17 7.5 13.985 7.5 10.25C7.5 6.515 10.515 3.5 14.25 3.5C17.985 3.5 21 6.515 21 10.25C21 13.985 17.985 17 14.25 17Z" fill="white" fill-opacity="1"/>
</svg>
